<?xml version="1.0" encoding="utf-8"?>
<svg version="1.1" id="svg2" width="666.66669" height="666.66669" viewBox="0 0 666.66669 666.66669" xmlns="http://www.w3.org/2000/svg">
  <g id="g8" transform="matrix(1.3333333,0,0,-1.3333333,0,666.66667)">
    <g id="g10" transform="scale(0.1)">
      <path d="M 0,0 H 5000 V 5000 H 0 Z" style="fill:#ffffff;fill-opacity:1;fill-rule:nonzero;stroke:none" id="path12"/>
      <path d="m 4037.82,1323.52 c -1.14,2.75 -2.58,5.38 -4.34,7.83 -8.36,11.7 -22.8,17.97 -37.11,17.97 -10,0 -19.93,-3.06 -27.69,-9.45 33.14,44.88 84.38,243.79 -73.09,331.46 -66.81,37.19 -128.2,51.43 -181.4,51.43 -103.96,0 -176.7,-54.36 -197.86,-98.11 -11.33,45.32 -51.05,82.95 -90.69,105.69 v 1895.99 c 0,53.8 -43.61,97.41 -97.41,97.41 h -253.74 c -12.86,15.96 -32.58,26.16 -54.69,26.16 h -416.25 c 0,30.84 0,89.43 0,108.51 0,55.14 -44.7,99.83 -99.84,99.83 -53.78,0 -97.64,-42.53 -99.75,-95.8 0,-0.02 0,-0.04 0,-0.06 0,-0.07 -0.01,-0.14 -0.01,-0.21 0,-0.03 0,-0.05 0,-0.08 -0.01,-0.07 -0.01,-0.14 -0.01,-0.2 0,-0.03 0,-0.06 0,-0.08 -0.01,-0.14 -0.01,-0.28 -0.02,-0.42 0,-0.02 0,-0.04 0,-0.05 0,-0.05 0,-0.11 0,-0.16 0,-0.05 0,-0.09 -0.01,-0.14 0,-0.04 0,-0.1 0,-0.15 0,-0.05 0,-0.09 0,-0.14 0,-0.05 0,-0.1 -0.01,-0.15 0,-0.05 0,-0.11 0,-0.16 0,-0.04 0,-0.09 0,-0.13 0,-0.07 0,-0.14 -0.01,-0.2 0,-0.04 0,-0.08 0,-0.12 0,-0.09 0,-0.17 0,-0.27 0,-0.03 0,-0.07 0,-0.1 0,-0.06 0,-0.13 0,-0.19 0,-0.04 -0.01,-0.08 -0.01,-0.12 0,-0.07 0,-0.13 0,-0.19 0,-0.04 0,-0.08 0,-0.11 0,-0.07 0,-0.13 0,-0.2 0,-0.03 0,-0.07 0,-0.1 0,-0.1 0,-0.2 0,-0.3 v 0 -108.51 H 1949.7 c -22.06,0 -41.78,-10.2 -54.66,-26.16 h -253.73 c -53.8,0 -97.41,-43.61 -97.41,-97.41 V 2504.92 l -187.31,-201.75 c -52.43,115.73 -91.19,237.6 -114.07,362.74 l -13.71,-2.51 c 23.48,-128.24 63.4,-252.95 117.52,-371.29 l -19.14,-20.61 c -23.31,11.63 -52.44,20.77 -89.41,20.77 -18.33,0 -38.58,-2.24 -61.02,-7.55 -51.19,-12.06 -68.05,-25.64 -67.64,-63.52 v 0 c 0.14,-12.59 2.18,-27.88 5.51,-46.64 5.81,-32.76 17.16,-70.05 28.14,-101.7 l -42.85,-46.16 c -0.97,0.98 -1.51,1.53 -1.51,1.53 l -14.7,5.8 -16.18,-17.52 c 2.82,-4.92 5.91,-9.85 9.22,-14.77 l -32.9,-35.43 c -2.11,-0.84 -4.03,-2.03 -5.58,-3.67 -1.62,-1.72 -2.7,-3.75 -3.36,-5.97 l -91.383,-98.43 c -111.828,41.3 -228.086,70.68 -346.066,86.89 104.894,83.59 180.769,164.07 144.516,262.81 -75.711,206.18 63.582,387.86 253.796,540.16 190.607,152.61 398.767,121.91 310.527,535.31 -99.06,464.13 240.89,447.84 433.84,627.48 281.99,262.54 424.68,411.62 733.98,419.34 6.81,0.17 13.66,0.26 20.69,0.26 435.5,0 1272.91,-325.92 1381.3,-734.15 50.15,-188.87 46.83,-410.41 230.66,-526.84 80.68,-51.1 171.05,-73.18 261.71,-105.31 184.48,-65.38 261.16,-207.93 259.04,-347.88 -5.18,-342.2 -240.51,-352.45 -166.48,-618.02 51.7,-185.46 222.59,-280.46 156.47,-463.08 -58.08,-160.42 -326.88,-203.97 -579.69,-211.69 m -37.83,1481.1 -126.67,-701.39 90.22,-16.29 121.78,674.3 0.05,-0.01 4.88,27.02 -0.05,0.01 0.01,0.06 v 0 l 13.47,74.58 c 0.12,0.69 0.18,1.38 0.19,2.07 0.01,5.55 -3.96,10.49 -9.62,11.51 l -67.21,12.14 c -0.7,0.13 -1.4,0.19 -2.09,0.19 -5.55,0 -10.47,-3.97 -11.49,-9.62 v 0 l -13.47,-74.57 M 707.188,1338.54 c -220.973,0 -545.668,16.89 -483.856,216.81 49.66,160.6 224.016,272.46 358.895,377.77 119.656,-15.41 237.554,-44.48 351.027,-85.95 l -97.82,-105.36 -13.579,-14.7 -1.082,1.01 -44.902,-48.3 -44.851,-48.34 157.5,-146.3 h 0.003 l 82.11,86.23 7.898,8.5 132.349,142.56 c 5.85,2.62 11.77,5.22 17.87,7.92 -7.92,-65.05 -25.65,-212.4 -30.29,-247.99 -16.91,-4.74 -31.19,-14.85 -37.13,-31.27 -10.21,-28.22 7.41,-66.13 -14.75,-86.37 -9.5,-8.66 -23.24,-10.45 -36.03,-11.67 -42.82,-4.06 -86.277,-8.68 -129.109,-13.76 -84.023,-0.48 -144.394,-0.79 -174.253,-0.79 m 546.582,110.43 c -4.01,0 -7.99,0.3 -11.85,0.9 -23.47,3.69 -44.99,14.48 -67.11,23.39 14.08,41.89 53.49,133.3 85.39,211.92 20.96,-13.43 41.61,-27.33 61.93,-41.69 -24.38,-18.52 -39.49,-50.41 -29.55,-79.86 7.86,-23.3 27.58,-43.59 25.94,-68.12 -1.97,-29.51 -34.42,-46.54 -64.75,-46.54 m 206.42,175.61 c -24.89,0 -49.38,23.05 -75.14,31.69 -6.23,2.09 -12.57,3.06 -18.86,3.06 -10.81,0 -21.49,-2.86 -31.29,-7.82 -22.74,16.19 -45.86,31.78 -69.39,46.81 2.37,5.91 4.69,11.72 6.94,17.4 l 73.29,-17.19 c 4.6,108.49 -8.83,185.02 -10.3,192.99 l 0.02,2.82 c 0.08,1.53 0.1,3.14 0.06,4.81 l -0.02,0.54 c -0.06,2.35 -0.12,4.6 -0.18,6.8 -0.5,26.21 0.8,44.94 2.98,60.97 l 61.55,66.31 c 28.14,2.31 55.8,8.18 81.99,17.58 19.77,-29.18 40.49,-57.76 62.06,-85.64 v -191.66 c -16.45,-15.97 -28.55,-35.45 -33.72,-58.5 -7.26,-32.38 -4.72,-75.34 -35.37,-88.06 -4.9,-2.03 -9.77,-2.91 -14.62,-2.91 m 83.71,364.07 c -23.78,31.43 -46.43,63.69 -67.92,96.71 5.34,16.5 9.68,31.27 14.01,45.51 l 53.91,58.07 v -200.29 m -67.72,71.1 c -14.91,4.13 -28.56,7.65 -41.82,11.2 l 20.28,21.84 c 7.04,-11.09 14.24,-22.12 21.54,-33.04 m -9.61,40.25 c -0.71,1.12 -1.42,2.23 -2.13,3.35 l 0.88,0.95 c 0.41,-1.44 0.82,-2.87 1.25,-4.3 m 1037.14,1701.12 c -30.93,0 -56,25.07 -56,56.01 0,28.38 21.1,51.82 48.46,55.51 -0.28,-0.12 -0.57,-0.23 -0.87,-0.35 2.77,0.42 5.53,0.85 8.41,0.85 3.81,0 7.53,-0.38 11.12,-1.1 25.61,-5.16 44.9,-27.78 44.9,-54.91 0,-17.04 -9.62,-33.93 -21.62,-44.2 0.01,0 0.01,0 0.02,0 -9.5,-7.4 -21.44,-11.81 -34.42,-11.81" style="fill:#eefafe;fill-opacity:1;fill-rule:nonzero;stroke:none" id="path14"/>
      <path d="m 4700.08,2083.75 c -159.05,-370.2 -465.7,-672.57 -833.21,-836.42 l 5.68,-12.72 c 370.65,165.3 679.76,470.01 840.33,843.64 l -12.8,5.5" style="fill:#caeefc;fill-opacity:1;fill-rule:nonzero;stroke:none" id="path16"/>
      <path d="m 4659.57,1982.06 c 55.81,46.45 94,113.57 105.44,185.27 2.8,17.58 3.37,37.6 -8.44,50.91 -3.25,3.66 -7.54,6.68 -12.41,7.17 -7.84,0.8 -14.74,-4.97 -19.98,-10.86 -27.75,-31.19 -37.39,-74.34 -42.15,-115.83 -4.77,-41.48 -13.85,-71.92 -22.46,-116.66" style="fill:#caeefc;fill-opacity:1;fill-rule:nonzero;stroke:none" id="path18"/>
      <path d="m 4583.69,1855.36 c 32.81,64.77 41.25,141.53 23.31,211.89 -4.4,17.25 -11.81,35.85 -27.94,43.38 -4.43,2.08 -9.57,3.15 -14.23,1.67 -7.51,-2.38 -11.56,-10.41 -14.03,-17.89 -13.11,-39.65 -4.84,-83.08 7.23,-123.05 12.08,-39.98 15.82,-71.51 25.66,-116" style="fill:#caeefc;fill-opacity:1;fill-rule:nonzero;stroke:none" id="path20"/>
      <path d="m 4472.02,1699.5 c 40.48,60.28 58.25,135.43 49.04,207.46 -2.25,17.65 -7.34,37.02 -22.42,46.47 -4.14,2.59 -9.12,4.29 -13.92,3.39 -7.75,-1.44 -12.75,-8.92 -16.12,-16.04 -17.85,-37.75 -14.96,-81.86 -7.86,-123.01 7.1,-41.15 6.96,-72.91 11.28,-118.27" style="fill:#caeefc;fill-opacity:1;fill-rule:nonzero;stroke:none" id="path22"/>
      <path d="m 4343.69,1562.93 c 40.48,60.28 58.25,135.43 49.04,207.46 -2.25,17.65 -7.34,37.02 -22.42,46.47 -4.15,2.6 -9.12,4.29 -13.93,3.4 -7.74,-1.45 -12.74,-8.93 -16.11,-16.05 -17.86,-37.74 -14.96,-81.86 -7.86,-123.01 7.1,-41.15 6.95,-72.91 11.28,-118.27" style="fill:#caeefc;fill-opacity:1;fill-rule:nonzero;stroke:none" id="path24"/>
      <path d="m 4151.47,1405.32 c 46.5,55.76 71.96,128.67 70.26,201.26 -0.41,17.79 -3.46,37.59 -17.49,48.55 -3.85,3.01 -8.62,5.21 -13.5,4.82 -7.85,-0.64 -13.59,-7.55 -17.68,-14.29 -21.67,-35.69 -23.36,-79.87 -20.56,-121.53 2.79,-41.67 -0.64,-73.24 -1.03,-118.81" style="fill:#caeefc;fill-opacity:1;fill-rule:nonzero;stroke:none" id="path26"/>
      <path d="m 4000.87,1304.65 c 45.75,49.64 75.29,118.89 81.55,191.14 1.53,17.71 1.02,37.73 -9.83,50.32 -2.98,3.46 -6.83,6.23 -11.05,6.44 -6.79,0.33 -12.44,-5.83 -16.66,-12.02 -22.35,-32.77 -28.49,-76.41 -30.51,-118.1 -2.03,-41.7 -8.32,-72.61 -13.5,-117.78" style="fill:#caeefc;fill-opacity:1;fill-rule:nonzero;stroke:none" id="path28"/>
      <path d="m 4545.67,1799.56 c 73.65,-12.14 153.1,3.1 219.32,42.08 16.23,9.55 33.05,22.46 36.49,40.46 0.94,4.95 0.7,10.28 -1.99,14.37 -4.33,6.58 -13.45,8.07 -21.62,8.19 -43.28,0.64 -84.88,-20.68 -122.01,-44.66 -37.14,-23.98 -67.93,-37.26 -110.19,-60.44" style="fill:#caeefc;fill-opacity:1;fill-rule:nonzero;stroke:none" id="path30"/>
      <path d="m 4455.44,1681.63 c 68.62,-29.37 149.41,-33.54 223.02,-11.5 18.04,5.41 37.46,13.92 45.09,30.58 2.1,4.58 3.14,9.82 1.51,14.43 -2.63,7.43 -11.14,11.05 -19.04,13.12 -41.88,10.95 -87.37,0.17 -129.15,-14.25 -41.79,-14.41 -74.86,-19.96 -121.43,-32.38" style="fill:#caeefc;fill-opacity:1;fill-rule:nonzero;stroke:none" id="path32"/>
      <path d="m 4320.65,1544.09 c 61.36,-42.51 139.69,-62.75 216.22,-55.88 18.75,1.68 39.48,6.15 50.29,20.94 2.98,4.07 5.04,8.99 4.37,13.83 -1.1,7.81 -8.71,13.06 -16.04,16.66 -38.84,19.12 -85.56,17.66 -129.38,11.89 -43.83,-5.77 -77.34,-4.59 -125.46,-7.44" style="fill:#caeefc;fill-opacity:1;fill-rule:nonzero;stroke:none" id="path34"/>
      <path d="m 4132.1,1385.26 c 69.25,-27.84 150.12,-30.2 223.22,-6.53 17.91,5.8 37.14,14.75 44.4,31.57 2,4.63 2.92,9.89 1.18,14.46 -2.79,7.37 -11.38,10.8 -19.32,12.69 -42.12,10.02 -87.35,-1.76 -128.8,-17.11 -41.46,-15.34 -74.4,-21.62 -120.68,-35.08" style="fill:#caeefc;fill-opacity:1;fill-rule:nonzero;stroke:none" id="path36"/>
      <path d="m 3979.64,1294.23 c 49.31,-56.03 120.45,-94.55 196.38,-106.32 18.61,-2.88 39.8,-3.55 53.86,8.21 3.86,3.23 7.06,7.51 7.57,12.37 0.82,7.84 -5.3,14.77 -11.55,20.03 -33.09,27.91 -78.79,37.75 -122.71,42.71 -43.93,4.96 -76.17,14.18 -123.55,23" style="fill:#caeefc;fill-opacity:1;fill-rule:nonzero;stroke:none" id="path38"/>
      <path d="m 3802.86,2863.4 c -1.96,0.11 -3.58,1.66 -3.72,3.67 l -1.4,19.89 c -0.16,2.17 1.48,4.06 3.66,4.21 2.15,0.21 4.05,-1.48 4.21,-3.66 l 1.4,-19.89 c 0.15,-2.17 -1.48,-4.06 -3.66,-4.21 l -0.49,-0.01" style="fill:#639fd7;fill-opacity:1;fill-rule:nonzero;stroke:none" id="path40"/>
      <path d="m 3892.21,1959.48 -52.57,-3.7 -58.49,847.58 26.28,1.85 26.29,1.84 58.49,-847.57" style="fill:#caeefc;fill-opacity:1;fill-rule:nonzero;stroke:none" id="path42"/>
      <path d="m 3807.83,2875.59 -10.62,-0.75 -16.06,-71.48 52.57,3.69 -25.89,68.54" style="fill:#caeefc;fill-opacity:1;fill-rule:nonzero;stroke:none" id="path44"/>
      <path d="m 1228.81,2663.4 c 93.96,-513.2 451.46,-970.39 926.86,-1185.33 l 5.74,12.7 c -471.08,212.87 -825.9,666.63 -918.89,1175.14 l -13.71,-2.51" style="fill:#caeefc;fill-opacity:1;fill-rule:nonzero;stroke:none" id="path46"/>
      <path d="m 1259.33,2557.74 c -44.04,57.73 -66.31,131.68 -61.47,204.12 1.19,17.76 5.1,37.4 19.58,47.74 3.98,2.85 8.84,4.84 13.7,4.23 7.81,-0.97 13.25,-8.13 17.04,-15.04 20.11,-36.6 19.88,-80.8 15.28,-122.31 -4.61,-41.5 -2.55,-73.2 -4.13,-118.74" style="fill:#caeefc;fill-opacity:1;fill-rule:nonzero;stroke:none" id="path48"/>
      <path d="m 1305.06,2417.31 c -17.54,70.46 -8.66,147.18 24.52,211.76 8.13,15.83 19.51,32.31 36.9,36.06 4.78,1.03 10.04,0.94 14.25,-1.55 6.8,-3.99 8.94,-12.72 9.69,-20.57 3.94,-41.57 -13.8,-82.06 -34.49,-118.33 -20.68,-36.28 -31.36,-66.19 -50.87,-107.37" style="fill:#caeefc;fill-opacity:1;fill-rule:nonzero;stroke:none" id="path50"/>
      <path d="m 1379.16,2240.48 c -26.02,67.79 -26.59,145.01 -1.55,213.17 6.13,16.71 15.41,34.46 32.22,40.3 4.62,1.61 9.84,2.15 14.33,0.21 7.23,-3.14 10.43,-11.54 12.13,-19.23 8.99,-40.78 -3.67,-83.14 -19.76,-121.67 -16.1,-38.53 -23.04,-69.53 -37.37,-112.78" style="fill:#caeefc;fill-opacity:1;fill-rule:nonzero;stroke:none" id="path52"/>
      <path d="m 1473.81,2078.74 c -26.02,67.78 -26.58,145.01 -1.55,213.17 6.14,16.7 15.41,34.45 32.22,40.3 4.62,1.61 9.85,2.15 14.33,0.2 7.23,-3.13 10.43,-11.53 12.13,-19.23 8.99,-40.78 -3.67,-83.13 -19.76,-121.67 -16.1,-38.53 -23.04,-69.52 -37.37,-112.77" style="fill:#caeefc;fill-opacity:1;fill-rule:nonzero;stroke:none" id="path54"/>
      <path d="m 1626.05,1882.24 c -32.9,64.72 -41.46,141.47 -23.62,211.86 4.37,17.25 11.76,35.86 27.87,43.42 4.43,2.08 9.57,3.16 14.24,1.69 7.51,-2.37 11.57,-10.39 14.05,-17.87 13.17,-39.63 4.97,-83.07 -7.05,-123.06 -12.02,-39.99 -15.71,-71.54 -25.49,-116.04" style="fill:#caeefc;fill-opacity:1;fill-rule:nonzero;stroke:none" id="path56"/>
      <path d="m 1750.41,1750.52 c -33.52,58.59 -46.88,132.68 -36.87,204.51 2.45,17.61 7.42,37.01 20.79,46.87 3.68,2.71 8.05,4.55 12.21,3.81 6.7,-1.2 10.83,-8.46 13.56,-15.43 14.48,-36.93 10.74,-80.84 3.42,-121.94 -7.32,-41.09 -8.08,-72.63 -13.11,-117.82" style="fill:#caeefc;fill-opacity:1;fill-rule:nonzero;stroke:none" id="path58"/>
      <path d="m 1329.68,2354.45 c -74.51,4.58 -148.56,37.16 -204.42,89.91 -13.69,12.93 -27.21,29.27 -26.55,47.58 0.18,5.03 1.61,10.18 5.14,13.57 5.69,5.45 14.91,4.86 22.9,3.16 42.34,-9.02 78.13,-39.09 108.99,-70.74 30.86,-31.65 57.91,-51.46 93.94,-83.48" style="fill:#caeefc;fill-opacity:1;fill-rule:nonzero;stroke:none" id="path60"/>
      <path d="m 1391.34,2219.36 c -73.44,-13.33 -153.13,0.63 -219.97,38.52 -16.38,9.29 -33.41,21.92 -37.14,39.87 -1.02,4.93 -0.87,10.27 1.75,14.4 4.22,6.65 13.32,8.28 21.49,8.54 43.26,1.34 85.2,-19.31 122.72,-42.68 37.52,-23.37 68.52,-36.15 111.15,-58.65" style="fill:#caeefc;fill-opacity:1;fill-rule:nonzero;stroke:none" id="path62"/>
      <path d="m 1492.07,2055.23 c -69.3,-27.75 -150.16,-30.02 -223.23,-6.26 -17.91,5.82 -37.12,14.79 -44.36,31.63 -1.99,4.62 -2.91,9.88 -1.17,14.46 2.8,7.36 11.39,10.78 19.34,12.66 42.12,9.97 87.34,-1.87 128.78,-17.26 41.44,-15.4 74.37,-21.72 120.64,-35.23" style="fill:#caeefc;fill-opacity:1;fill-rule:nonzero;stroke:none" id="path64"/>
      <path d="m 1640.46,1858.36 c -73.72,-11.69 -153.08,4.03 -219.05,43.41 -16.18,9.65 -32.92,22.65 -36.25,40.67 -0.91,4.96 -0.64,10.29 2.07,14.36 4.37,6.56 13.5,7.99 21.67,8.06 43.29,0.38 84.75,-21.19 121.74,-45.39 37,-24.21 67.7,-37.67 109.82,-61.11" style="fill:#caeefc;fill-opacity:1;fill-rule:nonzero;stroke:none" id="path66"/>
      <path d="m 1768.79,1735.63 c -60.57,-43.63 -138.5,-65.31 -215.15,-59.86 -18.78,1.34 -39.59,5.42 -50.67,20.01 -3.05,4.01 -5.21,8.9 -4.62,13.75 0.95,7.83 8.46,13.21 15.72,16.95 38.49,19.83 85.22,19.23 129.15,14.28 43.92,-4.96 77.41,-3.16 125.57,-5.13" style="fill:#caeefc;fill-opacity:1;fill-rule:nonzero;stroke:none" id="path68"/>
      <path d="m 314.781,1944.37 c 22.957,1.05 45.922,1.57 68.883,1.57 493.508,0.04 983.316,-240.07 1282.646,-633 l 11.08,8.44 c -302.18,396.53 -795.718,638.45 -1293.726,638.49 -23.168,0 -46.348,-0.53 -69.519,-1.58 l 0.636,-13.92" style="fill:#caeefc;fill-opacity:1;fill-rule:nonzero;stroke:none" id="path70"/>
      <path d="m 423.961,1952.28 c -66.145,29.96 -143.203,35.04 -212.711,14.05 -17.039,-5.15 -35.301,-13.37 -42.121,-29.8 -1.875,-4.52 -2.727,-9.7 -1.047,-14.3 2.707,-7.4 10.902,-11.09 18.484,-13.23 40.18,-11.37 83.211,-1.22 122.618,12.59 39.41,13.81 70.757,18.92 114.777,30.69" style="fill:#caeefc;fill-opacity:1;fill-rule:nonzero;stroke:none" id="path72"/>
      <path d="m 571.074,1939.27 c -72.597,1.27 -145.355,-24.62 -200.84,-71.46 -13.597,-11.48 -27.101,-26.27 -26.847,-44.06 0.07,-4.89 1.343,-9.99 4.707,-13.54 5.422,-5.72 14.41,-5.86 22.222,-4.82 41.395,5.5 76.868,31.88 107.567,60.19 30.703,28.31 57.453,45.43 93.191,73.69" style="fill:#caeefc;fill-opacity:1;fill-rule:nonzero;stroke:none" id="path74"/>
      <path d="m 760.031,1906.78 c -71.898,10.13 -147.273,-6.66 -208.066,-46.37 -14.902,-9.73 -30.113,-22.76 -32.035,-40.45 -0.528,-4.86 0.113,-10.08 3.015,-14.01 4.684,-6.34 13.586,-7.57 21.465,-7.5 41.758,0.4 80.192,22.25 114.121,46.59 33.934,24.34 62.574,38.06 101.5,61.74" style="fill:#caeefc;fill-opacity:1;fill-rule:nonzero;stroke:none" id="path76"/>
      <path d="m 938.902,1850.89 c -71.898,10.13 -147.273,-6.67 -208.066,-46.38 -14.902,-9.73 -30.113,-22.75 -32.035,-40.45 -0.528,-4.86 0.113,-10.08 3.019,-14.01 4.68,-6.34 13.582,-7.57 21.465,-7.5 41.754,0.4 80.188,22.25 114.117,46.59 33.934,24.34 62.575,38.06 101.5,61.75" style="fill:#caeefc;fill-opacity:1;fill-rule:nonzero;stroke:none" id="path78"/>
      <path d="m 1164.58,1746.67 c -70.46,17.53 -147.17,8.62 -211.752,-24.57 -15.832,-8.13 -32.308,-19.51 -36.051,-36.91 -1.031,-4.78 -0.929,-10.04 1.551,-14.25 3.996,-6.79 12.727,-8.94 20.57,-9.68 41.575,-3.93 82.062,13.82 118.332,34.51 36.27,20.7 66.18,31.38 107.35,50.9" style="fill:#caeefc;fill-opacity:1;fill-rule:nonzero;stroke:none" id="path80"/>
      <path d="m 1320.87,1655.08 c -64.63,19.51 -139.83,15.88 -207.57,-10.01 -16.61,-6.34 -34.39,-15.54 -41,-30.79 -1.81,-4.19 -2.62,-8.86 -0.97,-12.75 2.67,-6.26 10.68,-8.65 18.08,-9.75 39.24,-5.82 81.19,7.7 119.59,24.06 38.4,16.37 68.96,24.19 111.87,39.24" style="fill:#caeefc;fill-opacity:1;fill-rule:nonzero;stroke:none" id="path82"/>
      <path d="m 637.863,1929.4 c -21.203,71.57 -69.582,136.41 -133.539,178.99 -15.676,10.44 -34.625,19.95 -52.32,15.19 -4.867,-1.31 -9.563,-3.85 -12.066,-8.06 -4.04,-6.76 -1.391,-15.62 2.062,-23.02 18.301,-39.23 55.637,-67.36 93.41,-90.31 37.778,-22.96 63.16,-44.87 102.453,-72.79" style="fill:#caeefc;fill-opacity:1;fill-rule:nonzero;stroke:none" id="path84"/>
      <path d="m 783.348,1899.66 c -3.508,74.56 -35.008,149.08 -86.95,205.69 -12.73,13.88 -28.867,27.64 -47.187,27.24 -5.035,-0.11 -10.203,-1.46 -13.641,-4.94 -5.535,-5.61 -5.078,-14.84 -3.492,-22.85 8.406,-42.47 37.949,-78.69 69.152,-110 31.204,-31.32 50.622,-58.65 82.118,-95.14" style="fill:#caeefc;fill-opacity:1;fill-rule:nonzero;stroke:none" id="path86"/>
      <path d="m 965.906,1838.38 c 11.485,73.75 -4.472,153.06 -44.039,218.93 -9.695,16.14 -22.754,32.85 -40.781,36.12 -4.957,0.9 -10.289,0.61 -14.356,-2.11 -6.546,-4.39 -7.945,-13.52 -7.996,-21.69 -0.254,-43.29 21.442,-84.69 45.75,-121.61 24.309,-36.92 37.868,-67.59 61.422,-109.64" style="fill:#caeefc;fill-opacity:1;fill-rule:nonzero;stroke:none" id="path88"/>
      <path d="m 1191.08,1738 c -5.16,74.46 -38.31,148.26 -91.5,203.71 -13.04,13.59 -29.47,26.98 -47.78,26.17 -5.03,-0.22 -10.17,-1.68 -13.53,-5.24 -5.41,-5.73 -4.74,-14.95 -2.98,-22.92 9.35,-42.27 39.69,-77.83 71.58,-108.44 31.89,-30.61 51.91,-57.51 84.21,-93.28" style="fill:#caeefc;fill-opacity:1;fill-rule:nonzero;stroke:none" id="path90"/>
      <path d="m 1339.5,1640.52 c 28.91,68.82 32.54,149.64 10,223.09 -5.52,18.01 -14.17,37.36 -30.88,44.89 -4.59,2.07 -9.83,3.07 -14.43,1.41 -7.41,-2.68 -10.98,-11.21 -12.99,-19.13 -10.68,-41.95 0.4,-87.36 15.1,-129.05 14.7,-41.69 20.47,-74.72 33.2,-121.21" style="fill:#caeefc;fill-opacity:1;fill-rule:nonzero;stroke:none" id="path92"/>
      <path d="m 1954.03,1731.81 c -75.15,70.28 -181.3,106.12 -283.66,95.78 -69.33,-7 -144.93,-44.05 -160.19,-112.04 -7.26,-32.38 -4.72,-75.34 -35.37,-88.06 -30,-12.45 -58.97,18.45 -89.76,28.78 -51.27,17.19 -109.76,-41.41 -92.47,-92.64 7.86,-23.3 27.58,-43.59 25.94,-68.12 -2.23,-33.41 -43.52,-50.83 -76.6,-45.64 -33.08,5.19 -62.28,24.51 -94.73,32.76 -32.44,8.26 -74.46,-0.02 -85.86,-31.5 -10.21,-28.22 7.41,-66.13 -14.75,-86.37 -9.5,-8.66 -23.24,-10.45 -36.03,-11.67 -280.945,-26.67 -590.351,-77.07 -558.913,-126.98 8.593,-13.64 30.562,-9.3 46.683,-9.05 597.98,9.36 1141.15,18.28 1738.92,-0.06 l -283.21,514.81" style="fill:#caeefc;fill-opacity:1;fill-rule:nonzero;stroke:none" id="path94"/>
      <path d="m 3635.44,2671.1 177.27,-695.12 -33.72,-8.6 -219.33,684.39" style="fill:#99d6f4;fill-opacity:1;fill-rule:nonzero;stroke:none" id="path96"/>
      <path d="m 3385.74,2991.14 c -56.98,-14.53 -87.62,-88.06 -68.28,-163.89 19.34,-75.84 81.45,-125.72 138.43,-111.19 56.98,14.53 87.61,88.06 68.27,163.9 -19.34,75.84 -81.44,125.71 -138.42,111.18 z m 85.66,-335.9 c -90.52,-23.09 -186.86,47.12 -214.76,156.5 -27.89,109.37 23.07,217.14 113.59,240.22 90.52,23.09 186.86,-47.12 214.75,-156.49 27.9,-109.38 -23.06,-217.15 -113.58,-240.23" style="fill:#a8e3fa;fill-opacity:1;fill-rule:nonzero;stroke:none" id="path98"/>
      <path d="m 3564.6,2848.42 c 2.94,-11.53 53.9,-211.36 53.9,-211.36 2.71,-10.63 -3.71,-21.45 -14.34,-24.16 -10.63,-2.71 -21.44,3.71 -24.16,14.34 l -6.08,23.87 c 0,0 -28.31,60.37 -106.56,35.48 0,0 93.34,11.66 96.51,11.43 3.16,-0.23 -2.21,161.93 0.73,150.4" style="fill:#c8edfc;fill-opacity:1;fill-rule:nonzero;stroke:none" id="path100"/>
      <path d="m 3611.91,2582.49 c -27.38,-6.98 -55.33,9.61 -62.31,36.99 0,0 -3.23,16.63 -9.7,25.82 -10.14,14.39 -30.81,19.8 -68.64,10.16 l -9.58,53.43 c 19.89,6.36 34.19,15.95 50.18,14.83 8.57,1.05 15.69,1.9 21.64,2.6 -0.06,16.37 -0.38,37.96 -0.63,54.5 -0.24,17.58 22.57,37.35 22.51,49.98 -0.08,22.65 -23.32,45.54 4.8,49.31 l 27.66,3.67 61.07,-238.97 c 6.98,-27.38 -9.62,-55.34 -37,-62.32" style="fill:#a8e3fa;fill-opacity:1;fill-rule:nonzero;stroke:none" id="path102"/>
      <path d="m 3661.54,2677.4 0.52,-717.37 34.8,0.03 42.88,717.4" style="fill:#99d6f4;fill-opacity:1;fill-rule:nonzero;stroke:none" id="path104"/>
      <path d="m 3717.59,2907.32 c 0.06,-78.27 47.96,-141.91 106.76,-141.87 58.8,0.05 106.61,63.76 106.55,142.02 -0.05,78.27 -47.95,141.91 -106.76,141.87 -58.8,-0.04 -106.61,-63.75 -106.55,-142.02 z m -62.77,-0.05 c -0.08,112.88 75.86,204.77 169.28,204.84 93.41,0.07 169.49,-91.71 169.57,-204.59 0.08,-112.88 -75.86,-204.77 -169.27,-204.84 -93.42,-0.06 -169.5,91.71 -169.58,204.59" style="fill:#a8e3fa;fill-opacity:1;fill-rule:nonzero;stroke:none" id="path106"/>
      <path d="m 3686.23,2866.74 c 0.01,-11.9 0.16,-218.12 0.16,-218.12 0.01,-10.98 8.91,-19.86 19.88,-19.86 10.97,0.02 19.86,8.91 19.85,19.89 l -0.02,24.63 c 0,0 12.46,65.5 94.44,60.78 0,0 -93.31,-11.83 -96.33,-12.84 -3.01,-1.01 -37.99,157.42 -37.98,145.52" style="fill:#c8edfc;fill-opacity:1;fill-rule:nonzero;stroke:none" id="path108"/>
      <path d="m 3706.29,2597.38 c 28.26,0.02 51.23,23.03 51.21,51.28 0,0 -0.99,16.92 3,27.42 6.25,16.46 24.94,26.82 63.98,26.85 l -3.96,54.14 c -20.85,1.24 -37.07,6.98 -52.29,1.94 -8.56,-1.11 -15.67,-2.05 -21.62,-2.85 -3.99,15.87 -9.03,36.87 -12.89,52.95 -4.12,17.1 -31.12,30.6 -34.19,42.84 -5.54,21.98 11.3,49.91 -16.87,46.59 l -27.71,-3.29 0.06,-246.66 c 0.02,-28.26 23.03,-51.23 51.28,-51.21" style="fill:#a8e3fa;fill-opacity:1;fill-rule:nonzero;stroke:none" id="path110"/>
      <path d="m 3963.54,2086.94 -90.22,16.29 140.14,775.96 c 1.14,6.36 7.23,10.58 13.58,9.43 l 67.21,-12.14 c 6.35,-1.15 10.58,-7.23 9.43,-13.58 l -140.14,-775.96" style="fill:#99d6f4;fill-opacity:1;fill-rule:nonzero;stroke:none" id="path112"/>
      <path d="m 4090.21,2788.32 -90.22,16.3 13.47,74.57 c 1.14,6.36 7.23,10.58 13.58,9.43 l 67.21,-12.14 c 6.35,-1.15 10.58,-7.23 9.43,-13.58 l -13.47,-74.58" style="fill:#f35d8d;fill-opacity:1;fill-rule:nonzero;stroke:none" id="path114"/>
      <path d="m 4085.37,2761.23 -0.05,0.01 4.88,27.02 0.05,-0.01 -4.88,-27.02" style="fill:#a6cfeb;fill-opacity:1;fill-rule:nonzero;stroke:none" id="path116"/>
      <path d="m 4085.32,2761.24 -90.18,16.29 4.88,27.01 90.18,-16.28 -4.88,-27.02" style="fill:#7dbce9;fill-opacity:1;fill-rule:nonzero;stroke:none" id="path118"/>
      <path d="m 4034.2,1909.01 -147.23,58.03 313.97,796.58 147.23,-58.03 -313.97,-796.58" style="fill:#caeefc;fill-opacity:1;fill-rule:nonzero;stroke:none" id="path120"/>
      <path d="m 4286.88,2692.33 48.53,-19.13 5.1,12.96 -48.52,19.13" style="fill:#d2f0fa;fill-opacity:1;fill-rule:nonzero;stroke:none" id="path122"/>
      <path d="m 4270.57,2650.95 48.53,-19.12 5.11,12.96 -48.53,19.12" style="fill:#d2f0fa;fill-opacity:1;fill-rule:nonzero;stroke:none" id="path124"/>
      <path d="m 4254.26,2609.58 48.53,-19.13 5.11,12.96 -48.53,19.13" style="fill:#d2f0fa;fill-opacity:1;fill-rule:nonzero;stroke:none" id="path126"/>
      <path d="m 4214.22,2577.56 72.26,-28.48 5.11,12.95 -72.27,28.49" style="fill:#d2f0fa;fill-opacity:1;fill-rule:nonzero;stroke:none" id="path128"/>
      <path d="m 4221.65,2526.83 48.52,-19.13 5.11,12.96 -48.53,19.12" style="fill:#d2f0fa;fill-opacity:1;fill-rule:nonzero;stroke:none" id="path130"/>
      <path d="m 4205.34,2485.45 48.53,-19.13 5.1,12.96 -48.52,19.13" style="fill:#d2f0fa;fill-opacity:1;fill-rule:nonzero;stroke:none" id="path132"/>
      <path d="m 4189.03,2444.07 48.53,-19.12 5.1,12.96 -48.52,19.12" style="fill:#d2f0fa;fill-opacity:1;fill-rule:nonzero;stroke:none" id="path134"/>
      <path d="m 4148.98,2412.05 72.27,-28.48 5.11,12.96 -72.27,28.48" style="fill:#d2f0fa;fill-opacity:1;fill-rule:nonzero;stroke:none" id="path136"/>
      <path d="m 4156.41,2361.32 48.53,-19.13 5.11,12.96 -48.53,19.13" style="fill:#d2f0fa;fill-opacity:1;fill-rule:nonzero;stroke:none" id="path138"/>
      <path d="m 4140.11,2319.94 48.52,-19.12 5.11,12.96 -48.53,19.12" style="fill:#d2f0fa;fill-opacity:1;fill-rule:nonzero;stroke:none" id="path140"/>
      <path d="m 4123.8,2278.57 48.52,-19.13 5.11,12.96 -48.52,19.13" style="fill:#d2f0fa;fill-opacity:1;fill-rule:nonzero;stroke:none" id="path142"/>
      <path d="m 4083.75,2246.55 72.26,-28.48 5.11,12.95 -72.26,28.49" style="fill:#d2f0fa;fill-opacity:1;fill-rule:nonzero;stroke:none" id="path144"/>
      <path d="m 4091.18,2195.82 48.53,-19.13 5.1,12.96 -48.52,19.13" style="fill:#d2f0fa;fill-opacity:1;fill-rule:nonzero;stroke:none" id="path146"/>
      <path d="m 4074.87,2154.44 48.53,-19.13 5.11,12.96 -48.53,19.13" style="fill:#d2f0fa;fill-opacity:1;fill-rule:nonzero;stroke:none" id="path148"/>
      <path d="m 4058.56,2113.06 48.53,-19.12 5.11,12.96 -48.53,19.12" style="fill:#d2f0fa;fill-opacity:1;fill-rule:nonzero;stroke:none" id="path150"/>
      <path d="m 4018.52,2081.04 72.26,-28.48 5.11,12.96 -72.27,28.48" style="fill:#d2f0fa;fill-opacity:1;fill-rule:nonzero;stroke:none" id="path152"/>
      <path d="m 4025.95,2030.31 48.52,-19.12 5.11,12.95 -48.52,19.13" style="fill:#d2f0fa;fill-opacity:1;fill-rule:nonzero;stroke:none" id="path154"/>
      <path d="m 4009.64,1988.94 48.52,-19.13 5.11,12.96 -48.52,19.12" style="fill:#d2f0fa;fill-opacity:1;fill-rule:nonzero;stroke:none" id="path156"/>
      <path d="m 3993.33,1947.56 48.53,-19.13 5.1,12.96 -48.52,19.13" style="fill:#d2f0fa;fill-opacity:1;fill-rule:nonzero;stroke:none" id="path158"/>
      <path d="m 4141.81,1181.78 h -734.17 l -123.32,1110.64 c -1.57,14.12 9.49,26.47 23.7,26.47 h 933.41 c 14.21,0 25.27,-12.35 23.7,-26.47 L 4141.81,1181.78" style="fill:#a8e3fa;fill-opacity:1;fill-rule:nonzero;stroke:none" id="path160"/>
      <path d="m 3221.17,1133.38 c 442.22,-6.02 884.43,-12.05 1326.64,-18.07 14.84,-0.2 61.61,14.27 -18.99,66.25 -68.27,44.02 -284.05,4.41 -284.05,4.41 0,0 50.23,20.14 50,46.13 -0.23,25.99 -19.93,48.83 -43.58,59.61 -23.65,10.78 -50.58,11.56 -76.53,10.07 -52.8,-3.02 -105.09,-14.72 -154.14,-34.49 20.82,12.8 27.16,44.18 12.96,64.06 -14.2,19.88 -45.94,24.06 -64.8,8.52 33.14,44.88 84.38,243.79 -73.09,331.46 -197.38,109.87 -347.28,19.45 -379.26,-46.68 -16.22,64.91 -90.7,114.06 -139.75,126.24 -111.88,27.78 -184.75,19.54 -289.19,-29.23 -36.95,-17.26 -86.42,-76.19 -110.98,-108.74 -38.47,-50.98 -44.46,-118.77 -46.58,-182.6 -1.59,-47.91 -1.81,-95.87 -0.65,-143.79 l 291.99,-153.15" style="fill:#d2f0fa;fill-opacity:1;fill-rule:nonzero;stroke:none" id="path162"/>
      <path d="m 3479.58,1062.69 c 0,-22.93 -445.39,-41.51 -994.81,-41.51 -549.42,0 -994.81,18.58 -994.81,41.51 0,22.92 445.39,41.5 994.81,41.5 549.42,0 994.81,-18.58 994.81,-41.5" style="fill:#b6e7f4;fill-opacity:1;fill-rule:nonzero;stroke:none" id="path164"/>
      <path d="m 2503.71,3801.12 c -30.93,0 -56,25.07 -56,56.01 0,30.93 25.07,56.01 56,56.01 30.94,0 56.02,-25.08 56.02,-56.01 0,-30.94 -25.08,-56.01 -56.02,-56.01 m 0,157.12 c -55.13,0 -99.83,-44.69 -99.83,-99.83 v -127.95 h 199.67 c 0,0 0,101.62 0,127.95 0,55.14 -44.7,99.83 -99.84,99.83" style="fill:#e93654;fill-opacity:1;fill-rule:nonzero;stroke:none" id="path166"/>
      <path d="m 2538.11,3812.93 c 12,10.27 21.62,27.16 21.62,44.2 v 0 c 0,-17.96 -8.46,-33.95 -21.6,-44.2 -0.01,0 -0.01,0 -0.02,0 m -134.23,45.48 c 0,0.1 0,0.2 0,0.3 0,-0.1 0,-0.2 0,-0.3 m 0,0.4 c 0,0.07 0,0.13 0,0.2 0,-0.07 0,-0.14 0,-0.2 m 0,0.31 c 0,0.06 0,0.12 0,0.19 0,-0.07 0,-0.13 0,-0.19 m 0.01,0.31 c 0,0.06 0,0.13 0,0.19 0,-0.06 0,-0.13 0,-0.19 m 0,0.29 c 0,0.1 0,0.18 0,0.27 0,-0.09 0,-0.18 0,-0.27 m 0,0.39 c 0.01,0.06 0.01,0.13 0.01,0.2 0,-0.07 0,-0.14 -0.01,-0.2 m 0.01,0.33 c 0,0.05 0,0.11 0,0.16 0,-0.05 0,-0.11 0,-0.16 m 0.01,0.31 c 0,0.05 0,0.09 0,0.14 0,-0.05 0,-0.09 0,-0.14 m 0,0.29 c 0.01,0.05 0.01,0.09 0.01,0.14 0,-0.05 0,-0.09 -0.01,-0.14 m 0.01,0.3 c 0,0.01 0,0.03 0,0.05 0,-0.02 0,-0.03 0,-0.05 m 0.02,0.47 c 0,0.02 0,0.05 0,0.08 0,-0.03 0,-0.06 0,-0.08 m 0.01,0.28 c 0,0.03 0,0.05 0,0.08 0,-0.03 0,-0.06 0,-0.08 m 0.01,0.29 c 0,0.02 0,0.04 0,0.06 0,-0.02 0,-0.04 0,-0.06 m 110.87,49.66 c -3.59,0.72 -7.31,1.1 -11.12,1.1 -2.88,0 -5.64,-0.43 -8.41,-0.85 0.3,0.12 0.59,0.23 0.87,0.35 2.47,0.33 4.99,0.5 7.54,0.5 3.81,0 7.53,-0.38 11.12,-1.1" style="fill:#d099a8;fill-opacity:1;fill-rule:nonzero;stroke:none" id="path168"/>
      <path d="m 2434.38,3749.9 h -30.5 v 108.51 c 0,0.1 0,0.2 0,0.3 0,0.03 0,0.07 0,0.1 0,0.06 0,0.13 0,0.2 0,0.03 0,0.07 0,0.11 0,0.06 0,0.12 0,0.19 0,0.04 0.01,0.08 0.01,0.12 0,0.06 0,0.13 0,0.19 0,0.03 0,0.07 0,0.1 0,0.09 0,0.18 0,0.27 0,0.04 0,0.08 0,0.12 0.01,0.06 0.01,0.13 0.01,0.2 0,0.04 0,0.09 0,0.13 0,0.05 0,0.11 0,0.16 0,0.05 0.01,0.1 0.01,0.15 0,0.05 0,0.09 0,0.14 0,0.05 0,0.1 0,0.15 0.01,0.05 0.01,0.09 0.01,0.14 0,0.05 0,0.11 0,0.16 0,0.02 0,0.03 0,0.05 0.01,0.14 0.01,0.28 0.02,0.42 0,0.02 0,0.05 0,0.08 0,0.06 0,0.13 0.01,0.2 0,0.02 0,0.05 0,0.08 0,0.07 0.01,0.14 0.01,0.21 0,0.02 0,0.04 0,0.06 1.74,43.85 31.81,80.36 72.39,91.91 -26.9,-17.88 -41.97,-48.44 -41.97,-83.16 V 3749.9 m 103.75,63.03 c 13.14,10.25 21.6,26.24 21.6,44.2 v 0 0 c 0,27.13 -19.29,49.75 -44.9,54.91 -3.59,0.72 -7.31,1.1 -11.12,1.1 -2.55,0 -5.07,-0.17 -7.54,-0.5 7.59,3.05 8.46,5.1 21.86,5.1 30.93,0 56.01,-25.08 56.01,-56.02 0,-28.04 -14.31,-43.24 -35.91,-48.79" style="fill:#d0334b;fill-opacity:1;fill-rule:nonzero;stroke:none" id="path170"/>
      <path d="M 3328.23,1063.15 H 1641.31 c -53.8,0 -97.41,43.61 -97.41,97.41 v 2465.77 c 0,53.8 43.61,97.41 97.41,97.41 h 1686.92 c 53.8,0 97.41,-43.61 97.41,-97.41 V 1160.56 c 0,-53.8 -43.61,-97.41 -97.41,-97.41" style="fill:#4e86ce;fill-opacity:1;fill-rule:nonzero;stroke:none" id="path172"/>
      <path d="M 1652.96,1167.5 H 3316.58 V 3619.39 H 1652.96 Z" style="fill:#caeefc;fill-opacity:1;fill-rule:nonzero;stroke:none" id="path174"/>
      <path d="M 1716.93,1242.4 H 3252.61 V 3544.49 H 1716.93 Z" style="fill:#ffffff;fill-opacity:1;fill-rule:nonzero;stroke:none" id="path176"/>
      <path d="m 3090,3679.7 v -100 H 1879.5 v 100 c 0,38.8 31.5,70.2 70.2,70.2 h 1070.1 c 38.8,0 70.2,-31.4 70.2,-70.2" style="fill:#e93654;fill-opacity:1;fill-rule:nonzero;stroke:none" id="path178"/>
      <path d="M 3090,3579.7 H 1879.5 v 100 c 0,38.8 31.5,70.2 70.2,70.2 h 9.7 c -18.6,-17.8 -33.1,-45 -33.1,-72.8 v -72.4 H 3090 v -25" style="fill:#d0334b;fill-opacity:1;fill-rule:nonzero;stroke:none" id="path180"/>
      <path d="m 2392.26,3284.15 h -249.45 c -8.62,0 -15.61,6.98 -15.61,15.6 0,8.62 6.99,15.61 15.61,15.61 h 249.45 c 8.62,0 15.6,-6.99 15.6,-15.61 0,-8.62 -6.98,-15.6 -15.6,-15.6" style="fill:#deecf6;fill-opacity:1;fill-rule:nonzero;stroke:none" id="path182"/>
      <path d="m 3141.72,3204.62 h -189.67 c -8.62,0 -15.61,6.99 -15.61,15.61 0,8.62 6.99,15.6 15.61,15.6 h 189.67 c 8.62,0 15.61,-6.98 15.61,-15.6 0,-8.62 -6.99,-15.61 -15.61,-15.61" style="fill:#deecf6;fill-opacity:1;fill-rule:nonzero;stroke:none" id="path184"/>
      <path d="m 2869.86,3204.62 h -727.05 c -8.62,0 -15.61,6.99 -15.61,15.61 0,8.62 6.99,15.6 15.61,15.6 h 727.05 c 8.62,0 15.61,-6.98 15.61,-15.6 0,-8.62 -6.99,-15.61 -15.61,-15.61" style="fill:#deecf6;fill-opacity:1;fill-rule:nonzero;stroke:none" id="path186"/>
      <path d="m 3141.72,3125.09 h -998.91 c -8.62,0 -15.61,6.99 -15.61,15.61 0,8.62 6.99,15.6 15.61,15.6 h 998.91 c 8.62,0 15.61,-6.98 15.61,-15.6 0,-8.62 -6.99,-15.61 -15.61,-15.61" style="fill:#deecf6;fill-opacity:1;fill-rule:nonzero;stroke:none" id="path188"/>
      <path d="m 3141.72,3045.56 h -317.51 c -8.61,0 -15.6,6.99 -15.6,15.61 0,8.62 6.99,15.61 15.6,15.61 h 317.51 c 8.62,0 15.61,-6.99 15.61,-15.61 0,-8.62 -6.99,-15.61 -15.61,-15.61" style="fill:#deecf6;fill-opacity:1;fill-rule:nonzero;stroke:none" id="path190"/>
      <path d="m 2745.18,3045.56 h -602.37 c -8.62,0 -15.61,6.99 -15.61,15.61 0,8.62 6.99,15.61 15.61,15.61 h 602.37 c 8.62,0 15.61,-6.99 15.61,-15.61 0,-8.62 -6.99,-15.61 -15.61,-15.61" style="fill:#deecf6;fill-opacity:1;fill-rule:nonzero;stroke:none" id="path192"/>
      <path d="m 3141.72,3284.15 h -667.6 c -8.62,0 -15.61,6.98 -15.61,15.6 0,8.62 6.99,15.61 15.61,15.61 h 667.6 c 8.62,0 15.61,-6.99 15.61,-15.61 0,-8.62 -6.99,-15.6 -15.61,-15.6" style="fill:#deecf6;fill-opacity:1;fill-rule:nonzero;stroke:none" id="path194"/>
      <path d="m 2392.26,2712.45 h -249.45 c -8.62,0 -15.61,6.99 -15.61,15.61 0,8.62 6.99,15.6 15.61,15.6 h 249.45 c 8.62,0 15.6,-6.98 15.6,-15.6 0,-8.62 -6.98,-15.61 -15.6,-15.61" style="fill:#deecf6;fill-opacity:1;fill-rule:nonzero;stroke:none" id="path196"/>
      <path d="m 3141.72,2632.92 h -189.67 c -8.62,0 -15.61,6.99 -15.61,15.61 0,8.62 6.99,15.61 15.61,15.61 h 189.67 c 8.62,0 15.61,-6.99 15.61,-15.61 0,-8.62 -6.99,-15.61 -15.61,-15.61" style="fill:#deecf6;fill-opacity:1;fill-rule:nonzero;stroke:none" id="path198"/>
      <path d="m 2869.86,2632.92 h -727.05 c -8.62,0 -15.61,6.99 -15.61,15.61 0,8.62 6.99,15.61 15.61,15.61 h 727.05 c 8.62,0 15.61,-6.99 15.61,-15.61 0,-8.62 -6.99,-15.61 -15.61,-15.61" style="fill:#deecf6;fill-opacity:1;fill-rule:nonzero;stroke:none" id="path200"/>
      <path d="m 3141.72,2553.39 h -998.91 c -8.62,0 -15.61,6.99 -15.61,15.61 0,8.62 6.99,15.61 15.61,15.61 h 998.91 c 8.62,0 15.61,-6.99 15.61,-15.61 0,-8.62 -6.99,-15.61 -15.61,-15.61" style="fill:#deecf6;fill-opacity:1;fill-rule:nonzero;stroke:none" id="path202"/>
      <path d="m 3141.72,2473.87 h -317.51 c -8.61,0 -15.6,6.98 -15.6,15.6 0,8.62 6.99,15.61 15.6,15.61 h 317.51 c 8.62,0 15.61,-6.99 15.61,-15.61 0,-8.62 -6.99,-15.6 -15.61,-15.6" style="fill:#deecf6;fill-opacity:1;fill-rule:nonzero;stroke:none" id="path204"/>
      <path d="m 2745.18,2473.87 h -602.37 c -8.62,0 -15.61,6.98 -15.61,15.6 0,8.62 6.99,15.61 15.61,15.61 h 602.37 c 8.62,0 15.61,-6.99 15.61,-15.61 0,-8.62 -6.99,-15.6 -15.61,-15.6" style="fill:#deecf6;fill-opacity:1;fill-rule:nonzero;stroke:none" id="path206"/>
      <path d="m 3141.72,2712.45 h -667.6 c -8.62,0 -15.61,6.99 -15.61,15.61 0,8.62 6.99,15.6 15.61,15.6 h 667.6 c 8.62,0 15.61,-6.98 15.61,-15.6 0,-8.62 -6.99,-15.61 -15.61,-15.61" style="fill:#deecf6;fill-opacity:1;fill-rule:nonzero;stroke:none" id="path208"/>
      <path d="m 2392.26,2160.75 h -249.45 c -8.62,0 -15.61,6.99 -15.61,15.61 0,8.62 6.99,15.61 15.61,15.61 h 249.45 c 8.62,0 15.6,-6.99 15.6,-15.61 0,-8.62 -6.98,-15.61 -15.6,-15.61" style="fill:#deecf6;fill-opacity:1;fill-rule:nonzero;stroke:none" id="path210"/>
      <path d="m 3141.72,2081.23 h -189.67 c -8.62,0 -15.61,6.98 -15.61,15.6 0,8.62 6.99,15.61 15.61,15.61 h 189.67 c 8.62,0 15.61,-6.99 15.61,-15.61 0,-8.62 -6.99,-15.6 -15.61,-15.6" style="fill:#deecf6;fill-opacity:1;fill-rule:nonzero;stroke:none" id="path212"/>
      <path d="m 2869.86,2081.23 h -727.05 c -8.62,0 -15.61,6.98 -15.61,15.6 0,8.62 6.99,15.61 15.61,15.61 h 727.05 c 8.62,0 15.61,-6.99 15.61,-15.61 0,-8.62 -6.99,-15.6 -15.61,-15.6" style="fill:#deecf6;fill-opacity:1;fill-rule:nonzero;stroke:none" id="path214"/>
      <path d="m 3141.72,2001.7 h -998.91 c -8.62,0 -15.61,6.99 -15.61,15.6 0,8.62 6.99,15.61 15.61,15.61 h 998.91 c 8.62,0 15.61,-6.99 15.61,-15.61 0,-8.61 -6.99,-15.6 -15.61,-15.6" style="fill:#deecf6;fill-opacity:1;fill-rule:nonzero;stroke:none" id="path216"/>
      <path d="m 3141.72,1922.17 h -317.51 c -8.61,0 -15.6,6.99 -15.6,15.61 0,8.62 6.99,15.61 15.6,15.61 h 317.51 c 8.62,0 15.61,-6.99 15.61,-15.61 0,-8.62 -6.99,-15.61 -15.61,-15.61" style="fill:#deecf6;fill-opacity:1;fill-rule:nonzero;stroke:none" id="path218"/>
      <path d="m 2745.18,1922.17 h -602.37 c -8.62,0 -15.61,6.99 -15.61,15.61 0,8.62 6.99,15.61 15.61,15.61 h 602.37 c 8.62,0 15.61,-6.99 15.61,-15.61 0,-8.62 -6.99,-15.61 -15.61,-15.61" style="fill:#deecf6;fill-opacity:1;fill-rule:nonzero;stroke:none" id="path220"/>
      <path d="m 3141.72,2160.75 h -667.6 c -8.62,0 -15.61,6.99 -15.61,15.61 0,8.62 6.99,15.61 15.61,15.61 h 667.6 c 8.62,0 15.61,-6.99 15.61,-15.61 0,-8.62 -6.99,-15.61 -15.61,-15.61" style="fill:#deecf6;fill-opacity:1;fill-rule:nonzero;stroke:none" id="path222"/>
      <path d="m 2392.26,1599.06 h -249.45 c -8.62,0 -15.61,6.99 -15.61,15.6 0,8.63 6.99,15.61 15.61,15.61 h 249.45 c 8.62,0 15.6,-6.98 15.6,-15.61 0,-8.61 -6.98,-15.6 -15.6,-15.6" style="fill:#deecf6;fill-opacity:1;fill-rule:nonzero;stroke:none" id="path224"/>
      <path d="m 3141.72,1519.53 h -189.67 c -8.62,0 -15.61,6.99 -15.61,15.61 0,8.62 6.99,15.6 15.61,15.6 h 189.67 c 8.62,0 15.61,-6.98 15.61,-15.6 0,-8.62 -6.99,-15.61 -15.61,-15.61" style="fill:#deecf6;fill-opacity:1;fill-rule:nonzero;stroke:none" id="path226"/>
      <path d="m 2869.86,1519.53 h -727.05 c -8.62,0 -15.61,6.99 -15.61,15.61 0,8.62 6.99,15.6 15.61,15.6 h 727.05 c 8.62,0 15.61,-6.98 15.61,-15.6 0,-8.62 -6.99,-15.61 -15.61,-15.61" style="fill:#deecf6;fill-opacity:1;fill-rule:nonzero;stroke:none" id="path228"/>
      <path d="m 3141.72,1440 h -998.91 c -8.62,0 -15.61,6.99 -15.61,15.61 0,8.62 6.99,15.61 15.61,15.61 h 998.91 c 8.62,0 15.61,-6.99 15.61,-15.61 0,-8.62 -6.99,-15.61 -15.61,-15.61" style="fill:#deecf6;fill-opacity:1;fill-rule:nonzero;stroke:none" id="path230"/>
      <path d="m 3141.72,1360.47 h -317.51 c -8.61,0 -15.6,6.99 -15.6,15.61 0,8.62 6.99,15.61 15.6,15.61 h 317.51 c 8.62,0 15.61,-6.99 15.61,-15.61 0,-8.62 -6.99,-15.61 -15.61,-15.61" style="fill:#deecf6;fill-opacity:1;fill-rule:nonzero;stroke:none" id="path232"/>
      <path d="m 2745.18,1360.47 h -602.37 c -8.62,0 -15.61,6.99 -15.61,15.61 0,8.62 6.99,15.61 15.61,15.61 h 602.37 c 8.62,0 15.61,-6.99 15.61,-15.61 0,-8.62 -6.99,-15.61 -15.61,-15.61" style="fill:#deecf6;fill-opacity:1;fill-rule:nonzero;stroke:none" id="path234"/>
      <path d="m 3141.72,1599.06 h -667.6 c -8.62,0 -15.61,6.99 -15.61,15.6 0,8.63 6.99,15.61 15.61,15.61 h 667.6 c 8.62,0 15.61,-6.98 15.61,-15.61 0,-8.61 -6.99,-15.6 -15.61,-15.6" style="fill:#deecf6;fill-opacity:1;fill-rule:nonzero;stroke:none" id="path236"/>
      <path d="m 2037.56,3095.07 v 5.78 h -186.64 c -8.42,0.02 -15.23,6.82 -15.24,15.24 v 186.64 c 0.01,8.42 6.82,15.22 15.24,15.24 h 186.64 c 8.41,-0.02 15.22,-6.82 15.24,-15.24 v -186.64 c -0.02,-8.41 -6.83,-15.22 -15.24,-15.24 v -5.78 -5.79 c 14.81,0.01 26.8,12 26.8,26.81 v 186.64 c 0,14.81 -11.99,26.8 -26.8,26.81 h -186.64 c -14.81,-0.01 -26.8,-12 -26.81,-26.81 v -186.64 c 0.01,-14.81 12,-26.8 26.81,-26.81 h 186.64 v 5.79" style="fill:#4097b8;fill-opacity:1;fill-rule:nonzero;stroke:none" id="path238"/>
      <path d="m 2037.56,2525.23 v 5.78 h -186.64 c -8.42,0.02 -15.23,6.83 -15.24,15.24 v 186.64 c 0.01,8.42 6.82,15.23 15.24,15.24 h 186.64 c 8.41,-0.01 15.22,-6.82 15.24,-15.24 v -186.64 c -0.02,-8.41 -6.83,-15.22 -15.24,-15.24 v -5.78 -5.79 c 14.81,0.01 26.8,12 26.8,26.81 v 186.64 c 0,14.81 -11.99,26.8 -26.8,26.81 h -186.64 c -14.81,-0.01 -26.8,-12 -26.81,-26.81 v -186.64 c 0.01,-14.81 12,-26.8 26.81,-26.81 h 186.64 v 5.79" style="fill:#4097b8;fill-opacity:1;fill-rule:nonzero;stroke:none" id="path240"/>
      <path d="m 2037.56,1955.39 v 5.78 h -186.64 c -8.42,0.02 -15.23,6.83 -15.24,15.24 v 186.64 c 0.01,8.42 6.82,15.22 15.24,15.24 h 186.64 c 8.41,-0.02 15.22,-6.82 15.24,-15.24 v -186.64 c -0.02,-8.41 -6.83,-15.22 -15.24,-15.24 v -5.78 -5.78 c 14.81,0 26.8,11.99 26.8,26.8 v 186.64 c 0,14.81 -11.99,26.8 -26.8,26.81 h -186.64 c -14.81,-0.01 -26.8,-12 -26.81,-26.81 v -186.64 c 0.01,-14.81 12,-26.8 26.81,-26.8 h 186.64 v 5.78" style="fill:#4097b8;fill-opacity:1;fill-rule:nonzero;stroke:none" id="path242"/>
      <path d="m 2037.56,1385.55 v 5.78 h -186.64 c -8.42,0.02 -15.23,6.83 -15.24,15.24 v 186.64 c 0.01,8.42 6.82,15.22 15.24,15.24 h 186.64 c 8.41,-0.02 15.22,-6.82 15.24,-15.24 v -186.64 c -0.02,-8.41 -6.83,-15.22 -15.24,-15.24 v -5.78 -5.78 c 14.81,0 26.8,11.99 26.8,26.8 v 186.64 c 0,14.81 -11.99,26.8 -26.8,26.81 h -186.64 c -14.81,-0.01 -26.8,-12 -26.81,-26.81 v -186.64 c 0.01,-14.81 12,-26.8 26.81,-26.8 h 186.64 v 5.78" style="fill:#4097b8;fill-opacity:1;fill-rule:nonzero;stroke:none" id="path244"/>
      <path d="m 1844.68,3238.6 86.2,-104.09 c 3.55,-4.29 8.9,-6.6 14.46,-6.25 5.55,0.35 10.57,3.32 13.55,8.03 l 165.86,261.69 c 5.12,8.09 2.72,18.81 -5.37,23.94 -8.1,5.13 -18.81,2.72 -23.94,-5.37 l -153.07,-241.52 -70.97,85.71 c -6.11,7.38 -17.05,8.4 -24.43,2.29 -7.38,-6.11 -8.41,-17.05 -2.29,-24.43" style="fill:#f89d1c;fill-opacity:1;fill-rule:nonzero;stroke:none" id="path246"/>
      <path d="m 1844.68,2673.5 86.2,-104.09 c 3.55,-4.29 8.9,-6.61 14.46,-6.25 5.55,0.35 10.57,3.32 13.55,8.02 l 165.86,261.69 c 5.13,8.1 2.72,18.82 -5.37,23.95 -8.1,5.13 -18.81,2.72 -23.94,-5.37 l -153.07,-241.52 -70.97,85.7 c -6.11,7.38 -17.05,8.41 -24.43,2.3 -7.38,-6.11 -8.41,-17.05 -2.29,-24.43" style="fill:#f89d1c;fill-opacity:1;fill-rule:nonzero;stroke:none" id="path248"/>
      <path d="m 1472.23,1058.64 c 0,-11.21 -125.86,-20.31 -281.13,-20.31 -155.25,0 -281.104,9.1 -281.104,20.31 0,11.22 125.854,20.32 281.104,20.32 155.27,0 281.13,-9.1 281.13,-20.32" style="fill:#b6e7f4;fill-opacity:1;fill-rule:nonzero;stroke:none" id="path250"/>
      <path d="m 1238.88,2220.63 c 1.18,-5.7 4.16,-10.58 8.23,-14.2 4.43,-4.16 10.41,-6.88 16.74,-7.6 16.55,-1.72 42.16,-5.25 69.21,-8.87 43.42,-5.79 90.74,-11.76 110.64,-10.67 4.52,0.18 22.8,-0.36 35.19,4.88 l 1.09,0.37 0.18,0.18 c 2.98,2.62 3.07,9.59 2.17,16.55 -0.81,7.6 -2.8,15.29 -2.99,17.28 -1.99,20.63 -19.08,27.5 -27.41,29.59 -2.71,0.72 -4.52,0.9 -4.52,0.9 -1,0.27 -1.99,0.63 -3.08,1 -40.71,12.93 -86.76,16.1 -116.43,21.08 -14.29,2.44 -29.13,1.71 -42.88,-2.18 -9.41,-2.62 -18.37,-6.78 -26.51,-12.39 -12.75,-8.87 -22.8,-20.9 -19.63,-35.92" style="fill:#ffffff;fill-opacity:1;fill-rule:nonzero;stroke:none" id="path252"/>
      <path d="m 1438.36,2201.18 c 1.09,-2.98 2.54,-5.52 4.16,-7.69 0.82,-0.99 1.63,-1.9 2.45,-2.71 10.58,-10.22 27.05,-8.33 30.12,-7.87 h 0.09 c 1.18,0.36 2.36,0.81 3.71,1.26 l 1.27,0.55 c 26.05,11.03 81.24,51.47 118.96,80.33 l 0.37,0.18 c 22.52,17.37 38.81,30.4 38.81,30.4 l -3.35,5.16 -13.39,19.63 c 0,0 -83.86,-39.63 -123.49,-53.47 -17.37,-6.06 -34.38,-11.58 -46.14,-18.81 -1.54,-0.91 -2.89,-1.81 -4.25,-2.81 0,0 -17.82,-20.35 -9.32,-44.15" style="fill:#51add7;fill-opacity:1;fill-rule:nonzero;stroke:none" id="path254"/>
      <path d="m 1333.06,2189.96 c 43.42,-5.79 90.74,-11.76 110.64,-10.67 4.52,0.18 22.8,-0.36 35.19,4.88 l 1.09,0.37 0.18,0.18 c 26.05,11.03 81.24,51.47 118.96,80.33 -5.42,-3.25 -76.89,-44.78 -116.79,-63.78 -10.04,-4.79 -18.09,-8.14 -22.53,-9.13 -3.89,-0.82 -8.95,-1.27 -14.83,-1.36 l -2.25,-0.01 c -36.79,0.16 -70.35,20.11 -89.89,51.29 -9.6,15.31 -17.6,24.17 -17.6,24.17 0,0 -1.36,-44.6 -2.17,-76.27" style="fill:#4197b8;fill-opacity:1;fill-rule:nonzero;stroke:none" id="path256"/>
      <path d="m 1460.64,2252.79 c 0,0 -6.49,-4.69 -25.57,0 -19.08,4.69 0.99,-18.65 0.99,-18.65 l 30.03,1.89 2.55,7.75 -8,9.01" style="fill:#ffffff;fill-opacity:1;fill-rule:nonzero;stroke:none" id="path258"/>
      <path d="m 1156.97,2034.1 c 8.05,-20.89 9.97,-43.68 5.1,-65.58 -9.66,-43.47 1.33,-46.38 1.33,-46.38 0,0 58.92,-37.4 107.91,-52.68 35.12,-10.93 65.05,-9.08 64.21,29.69 l -0.02,0.54 c -0.06,2.35 -0.12,4.6 -0.18,6.8 -1.65,87.14 16.52,91.57 21,189.14 4.62,100.1 3.63,159.37 -28.43,175.51 -34.93,17.6 -82.98,29.69 -151.13,13.58 -51.19,-12.06 -68.05,-25.64 -67.64,-63.52 0.14,-12.59 2.18,-27.88 5.51,-46.64 8.46,-47.67 28.64,-104.9 42.34,-140.46" style="fill:#51add7;fill-opacity:1;fill-rule:nonzero;stroke:none" id="path260"/>
      <path d="m 1156.97,2034.1 c 8.05,-20.89 9.97,-43.68 5.1,-65.58 -9.66,-43.47 1.33,-46.38 1.33,-46.38 0,0 58.92,-37.4 107.91,-52.68 l 45.79,4.34 18.32,14.4 0.08,11.49 c -0.06,2.35 -0.12,4.6 -0.18,6.8 -10.45,-1 -34.25,-2.22 -69.13,1.8 -26.96,3.07 -51.46,10.76 -67.79,16.98 -11.91,4.51 -18.9,16.82 -16.67,29.36 2.96,17.14 6.47,41.71 6.34,60.79 -0.14,19.18 -9.02,51.61 -16.29,75 -5.54,17.95 -7.43,36.73 -6.1,55.45 2.27,32.38 -0.05,63.2 -0.05,63.2 l -36.29,19.66 -20.22,-7.53 c 0.14,-12.59 2.18,-27.88 5.51,-46.64 8.46,-47.67 28.64,-104.9 42.34,-140.46" style="fill:#4197b8;fill-opacity:1;fill-rule:nonzero;stroke:none" id="path262"/>
      <path d="m 1320.9,2390.73 c -6.7,-2.7 -3.9,-25.4 -5.2,-32.7 -1.2,-7.4 -6.5,-35.8 -21.5,-40.1 -14.9,-4.3 -24.2,-5.5 -24.2,-8 -0.1,-1.1 0.3,-6.3 0.7,-11.5 0.2,-2.2 0.4,-4.4 0.5,-6.2 l 0.1,-1.4 0.1,-1.2 c 0.2,-1.8 -0.2,-9.2 -1.3,-10.6 l -9.8,-6.5 c -1.3,-1.5 -3.1,-2.5 -5.1,-2.6 l -10.3,-0.8 -2.2,0.2 -5.8,1.7 c -0.8,3.5 -1.4,6.2 -1.5,6.3 -0.2,0.3 -18.3,12.1 -28.8,19 -0.6,10.8 -1.5,23.3 -2.3,26.5 -0.7,2.7 -8.4,17.6 -16.4,35.3 -0.7,1.5 -1.4,3 -2,4.5 -1.8,4 -3.5,8.1 -5.2,12.2 l -0.7,1.6 c -5.7,14.5 -10.2,28.8 -10.3,38.4 0,26.2 0.9,53.6 17.1,67.1 16,13.4 117.7,61.6 121.1,-17.4 l 0.2,-1.4 c 1.5,-5.4 12.5,-45.7 17.6,-53.1 5.4,-7.9 1.9,-16.7 -4.8,-19.3" style="fill:#f8a175;fill-opacity:1;fill-rule:nonzero;stroke:none" id="path264"/>
      <path d="m 1270.1,2279.03 -1,-4.9 c -0.7,-3.5 -3.8,-5.9 -7.3,-5.8 l -17.4,0.7 -1.7,0.3 -5.8,1.7 c -0.8,3.5 -1.4,6.2 -1.5,6.3 -0.2,0.3 -18.3,12.1 -28.8,19 -0.6,10.8 -1.5,23.3 -2.3,26.5 -0.7,2.7 -8.4,17.6 -16.4,35.3 -0.7,1.5 -1.4,3 -2,4.5 -1.8,4 -3.5,8.1 -5.2,12.2 -0.4,1.1 -0.6,2.2 -0.5,3.4 l 0.7,7.8 c 0.3,3.4 2.9,6.2 6.3,6.5 8.6,1 24,2.7 24.8,2.6 1.1,-0.1 10.5,-18.1 10.5,-19.1 0,-0.8 -4.3,-14 -5.5,-17.6 l -0.4,-1.8 c -0.1,-4 -0.7,-20.4 -0.2,-35.5 0.3,-10.9 6.3,-20.6 15.5,-25.6 l 1.3,-0.7 c 4.7,-2.4 20.9,-10.7 36.9,-15.8" style="fill:#f28e68;fill-opacity:1;fill-rule:nonzero;stroke:none" id="path266"/>
      <path d="m 1325.2,2383.53 c 21.8,-19.8 -1.8,-62.7 -8.8,-68.8 -7,-6.1 -57,-21.3 -85.7,6.3 -5.5,5.1 -9.4,11.2 -12.3,17.5 l -0.1,0.2 c -0.8,1.8 -7.2,17.3 -6.7,39.3 l -8.2,-2 c 0,0 -1.5,-25.5 1.4,-41.3 -0.1,-6.2 -7.6,-9.4 -12,-5.1 -13,12.7 -32.7,40.6 -39.4,96.6 -10.3,86.1 76,92 95.4,90 13.9,-1.5 37.9,-0.7 44.3,3 48.5,28 44,-21.9 37.1,-40.7 -2.3,-6.4 -7.5,-14.5 -8.6,-17.4 -1.1,-2.9 1.2,-15.7 1.2,-21.5 -0.1,-5.8 -5.2,-8.9 -5.2,-8.9 0,0 -4.9,16.1 -5.5,18.4 -0.5,1.7 -2.5,8.9 -3.4,12.1 -0.3,1 -1.1,1.8 -2,2.2 -3,1.1 -6,1.7 -6,1.7 -3.2,0.9 -15.7,1.6 -25.5,2.1 -6.4,0.3 -12.1,-4.6 -12.3,-11.1 -1.2,-26.9 -15,-31.8 -21.3,-32.6 -1.8,-0.2 -3.2,-1.6 -3.4,-3.4 -4.2,-32.8 8.4,-51.2 13.8,-52.1 5.6,-1 22.7,13.7 22.7,13.7 0,0 28.8,21.6 50.5,1.8" style="fill:#151a34;fill-opacity:1;fill-rule:nonzero;stroke:none" id="path268"/>
      <path d="m 1214.21,2399.96 c 0,0 -1.33,14.72 -12.61,12.67 -13.41,-2.43 -20.01,-33.68 0.59,-41.27 4.51,-1.66 9.32,1.83 9.41,6.63 0.13,6.09 0.69,14.56 2.61,21.97" style="fill:#f28e68;fill-opacity:1;fill-rule:nonzero;stroke:none" id="path270"/>
      <path d="m 1280.6,2248.47 c 0,0 53.1,-174.06 42.48,-257.45 l -19.57,-35.59 -21.38,38.81 c 0,0 17.39,166.71 -15.91,251.29 l 14.38,2.94" style="fill:#1f3c58;fill-opacity:1;fill-rule:nonzero;stroke:none" id="path272"/>
      <path d="m 1284.28,2263.29 -0.28,-2.28 c -0.53,-4.32 -1.67,-8.54 -3.4,-12.54 l -14.38,-2.94 -12.52,9.33 14.36,16.69 2.23,-0.57 c 5.15,-1.31 9.89,-3.89 13.78,-7.5 l 0.21,-0.19" style="fill:#1b3245;fill-opacity:1;fill-rule:nonzero;stroke:none" id="path274"/>
      <path d="m 1206.19,2303.2 c 0,0 -3.59,-4.3 -10.45,-14.62 0,0 10,-3.75 18.21,-8.76 7.49,-4.58 43.52,-30.03 43.52,-30.03 l 10.59,21.76 c 0,0 -41.5,25.95 -61.87,31.65" style="fill:#4197b8;fill-opacity:1;fill-rule:nonzero;stroke:none" id="path276"/>
      <path d="m 1268.06,2271.55 c 0,0 12.61,-4.31 16.48,-13.72 0,0 6.1,18.67 0.96,28.93 0,0 -3.69,9.71 -14.98,14.28 l -2.46,-29.49" style="fill:#4197b8;fill-opacity:1;fill-rule:nonzero;stroke:none" id="path278"/>
      <path d="m 1324.17,1116.94 c 0,0 4.99,-12.78 4.36,-21.2 -0.62,-8.42 -27.43,-9.04 -30.55,-4.68 -3.11,4.37 -4.67,43.02 -4.67,43.02" style="fill:#f8a175;fill-opacity:1;fill-rule:nonzero;stroke:none" id="path280"/>
      <path d="m 1290.9,1083.64 c 0,-8.78 2.44,-23.07 2.44,-23.07 h 30.9 l 1.52,5.16 c 0,0 10.01,-5.16 17.88,-5.16 h 26.08 c 19.09,0 29.93,2.43 30.41,5.79 2.01,14.04 -20.79,13.4 -26.73,13.4 -17.05,0 -35.51,7.98 -39.53,16.63 -2.92,6.28 -1.63,7.87 -5.16,6.7 0,0 -3.17,-0.69 -5.29,-4.57 -3.25,-5.97 -9.42,-9.97 -16.11,-8.79 -3.83,0.67 -7.67,2.13 -10.44,5.04 0,0 -5.97,-2.36 -5.97,-11.13" style="fill:#343434;fill-opacity:1;fill-rule:nonzero;stroke:none" id="path282"/>
      <path d="m 1023.6,1146.07 c 0,0 -5.72,-22.61 -9.41,-30.2 -3.7,-7.59 -28.831,1.76 -30.112,6.97 -1.277,5.21 11.59,41.69 11.59,41.69" style="fill:#f8a175;fill-opacity:1;fill-rule:nonzero;stroke:none" id="path284"/>
      <path d="m 974.746,1118.57 c -3.246,-8.15 -8.066,-23.95 -8.066,-23.95 l 23.418,-13.97 4.593,3.47 c 0,0 5.164,-8.38 12.319,-12.87 5.32,-3.34 17.07,-8.21 23.19,-9.61 21.39,-4.88 37.92,-2.52 39.61,0.42 7.07,12.29 -21.28,19.05 -26.8,21.25 -15.83,6.31 -23.09,21.66 -23.62,31.19 -0.39,6.91 1.4,7.91 -2.31,8.13 0,0 -3.21,0.54 -6.61,-2.29 -5.23,-4.33 -12.443,-5.76 -18.22,-2.19 -3.305,2.04 -6.332,4.82 -7.836,8.54 0,0 -6.414,0.03 -9.668,-8.12" style="fill:#343434;fill-opacity:1;fill-rule:nonzero;stroke:none" id="path286"/>
      <path d="m 1132.16,1748.63 c 0,0 -41.98,100.53 31.24,173.51 0,0 62.48,-27.97 112.51,-31.35 39.4,-2.66 59.4,1.42 59.4,1.42 0,0 15.29,-78.97 10.43,-193.68 l -213.58,50.1" style="fill:#26386b;fill-opacity:1;fill-rule:nonzero;stroke:none" id="path288"/>
      <path d="m 1289.63,1107.24 c 1.27,-0.09 2.54,-0.09 3.71,-0.09 26.06,-0.27 40.89,2.8 40.89,2.8 v 7.51 c -1.44,115.08 12.49,303.16 15.2,362.6 0.18,4.16 0.09,7.96 -0.36,11.4 -4.52,43.51 -49.49,37.81 -68.39,-2.17 -4.44,-9.32 -7.97,-19.63 -10.68,-30.76 -3.35,-13.39 -5.61,-27.96 -6.97,-43.43 -8.77,-99.33 18.91,-233.68 26.6,-307.86" style="fill:#26386b;fill-opacity:1;fill-rule:nonzero;stroke:none" id="path290"/>
      <path d="m 1211.65,1702.25 c 0.18,-1.18 0.45,-2.44 0.72,-3.71 9.95,-52.38 42.25,-193.96 57.63,-239.92 v -0.09 c 2.26,-6.43 9.95,-11.85 19.81,-14.48 22.62,-6.15 56.37,2.26 59.26,47.41 0.36,4.97 0.27,10.4 -0.18,16.28 -1.92,23.53 -3.57,124 -3.15,190.79 0.23,37.91 -8.93,60.87 -9.52,67.86 -1.53,19.54 -5.06,48.04 -15.38,51.66 -51.47,17.82 -122.67,-42.52 -109.19,-115.8" style="fill:#26386b;fill-opacity:1;fill-rule:nonzero;stroke:none" id="path292"/>
      <path d="m 1263.03,1415.1 c -8.77,-99.33 18.91,-233.68 26.6,-307.86 1.27,-0.09 2.54,-0.09 3.71,-0.09 0,0 -6.42,117.52 -16.92,198.94 -8.14,62.87 6.34,116.7 13.39,137.96 2.08,6.34 3.53,9.77 3.53,9.77 l -12.66,35.47 c -14.12,46.14 -14.48,153.79 -14.48,153.79 34.38,75.82 39.17,171.26 39.17,171.26 l -29.4,-4.07 -52.65,-63.15 -10.95,-48.58 c 9.95,-52.38 42.25,-193.96 57.63,-239.92 v -0.09 c -3.35,-13.39 -5.61,-27.96 -6.97,-43.43" style="fill:#1f2f56;fill-opacity:1;fill-rule:nonzero;stroke:none" id="path294"/>
      <path d="m 1259.69,1493.83 c 0,0 8.83,-39.83 3.34,-78.73 -5.48,-38.9 18.64,34.23 18.64,34.23 l -12.82,26.39 -9.16,18.11" style="fill:#1f2f56;fill-opacity:1;fill-rule:nonzero;stroke:none" id="path296"/>
      <path d="m 1109.1,1492.22 c 34.85,32.78 83.32,17.27 60.68,-33.61 -24.21,-54.4 -99.08,-205.42 -139.67,-313.08 l -2.8,-7 c 0,0 -16.31,2.82 -42.49,13.76 19.32,69.88 33.36,190.31 73.51,274.23 12.9,26.99 32.7,48.71 50.77,65.7" style="fill:#26386b;fill-opacity:1;fill-rule:nonzero;stroke:none" id="path298"/>
      <path d="m 1305.41,1814.31 c 6.77,80.94 -94.1,27.19 -142.48,0.46 -20.37,-11.24 -27.82,-33.75 -30.55,-54.93 -2.75,-21.19 -28.89,-239.28 -34.14,-279.07 -11.83,-89.71 66.52,-40.65 73.93,-15.8 18.68,62.76 129.56,305.24 133.24,349.34" style="fill:#26386b;fill-opacity:1;fill-rule:nonzero;stroke:none" id="path300"/>
      <path d="m 1105.18,1536.37 c 0,0 -3.19,-42.93 -39.25,-95.86 0,0 59,27.24 61.87,31.25 2.86,4.01 13.17,45.59 12.02,49.99 -1.14,4.41 -34.64,14.62 -34.64,14.62" style="fill:#26386b;fill-opacity:1;fill-rule:nonzero;stroke:none" id="path302"/>
      <path d="m 1901.63,2741.31 -68.7,-241 -854.399,-920.4 -7.898,-8.5 -82.11,-86.23 -157.5,146.3 87.411,91.93 17,18.4 839.996,904.8 226.2,94.7" style="fill:#fabb42;fill-opacity:1;fill-rule:nonzero;stroke:none" id="path304"/>
      <path d="m 933.371,1533.52 -44.851,-48.34 -157.5,146.3 44.851,48.34 157.5,-146.3" style="fill:#f35f9a;fill-opacity:1;fill-rule:nonzero;stroke:none" id="path306"/>
      <path d="m 978.273,1581.82 -44.902,-48.3 -157.5,146.3 44.902,48.3 157.5,-146.3" style="fill:#fde5bc;fill-opacity:1;fill-rule:nonzero;stroke:none" id="path308"/>
      <path d="m 1675.43,2646.61 157.5,-146.3 68.7,241 -226.2,-94.7" style="fill:#fde5bc;fill-opacity:1;fill-rule:nonzero;stroke:none" id="path310"/>
      <path d="m 1820.68,2707.42 57.19,-49.45 23.76,83.34 -80.95,-33.89" style="fill:#fabb42;fill-opacity:1;fill-rule:nonzero;stroke:none" id="path312"/>
      <path d="m 888.523,1485.18 v 0 l 44.848,48.34 44.902,48.3 -42.503,39.48 251.87,264.75 c 4.87,-4 7.7,-6.2 7.7,-6.2 l 3.57,4.18 c 0,0 2.5,-5.6 7.8,-12.8 2.8,-3.8 8,-6.2 12.2,-7.6 l 7.9,8.5 0.5,5.7 -23.6,25.11 596.9,627.4 32.32,-30.03 -944.41,-1015.13" style="fill:#f6861a;fill-opacity:1;fill-rule:nonzero;stroke:none" id="path314"/>
      <path d="m 888.52,1485.18 v 0 l -43.665,40.56 45.454,47.78 43.062,-40 -44.851,-48.34" style="fill:#f14b34;fill-opacity:1;fill-rule:nonzero;stroke:none" id="path316"/>
      <path d="m 933.371,1533.52 v 0 l -43.062,40 45.461,47.78 42.503,-39.48 -44.902,-48.3" style="fill:#f9a532;fill-opacity:1;fill-rule:nonzero;stroke:none" id="path318"/>
      <path d="m 1832.93,2500.31 v 0 l -32.32,30.02 v 0.01 l 65.84,137.51 11.42,-9.88 23.76,83.34 -17.43,-61.13 -11.53,-40.48 -30.24,-106.09 -3.27,-11.46 -6.23,-21.84" style="fill:#f9a532;fill-opacity:1;fill-rule:nonzero;stroke:none" id="path320"/>
      <path d="m 1877.87,2657.97 -11.42,9.88 35.18,73.46 -23.76,-83.34" style="fill:#f6861a;fill-opacity:1;fill-rule:nonzero;stroke:none" id="path322"/>
      <path d="m 1076.75,2001.74 c -3.31,4.92 -6.4,9.85 -9.22,14.77 l 16.18,17.52 14.7,-5.8 c 0,0 0.54,-0.55 1.51,-1.53 l -23.17,-24.96" style="fill:#c5d5df;fill-opacity:1;fill-rule:nonzero;stroke:none" id="path324"/>
      <path d="m 1187.64,1886.05 c -20.48,16.81 -77.07,65.43 -110.89,115.69 l 23.17,24.96 c 7.66,-7.72 41.8,-42.22 44.29,-45.77 2.8,-4.1 33.2,-50 33.2,-50 l 26.3,-27.99 -16.07,-16.89" style="fill:#cf9f3a;fill-opacity:1;fill-rule:nonzero;stroke:none" id="path326"/>
      <path d="m 1218.91,1863.63 c -4.2,1.4 -9.4,3.8 -12.2,7.6 -5.3,7.2 -7.8,12.8 -7.8,12.8 l -3.57,-4.18 c 0,0 -2.83,2.2 -7.7,6.2 l 16.07,16.89 23.6,-25.11 -0.5,-5.7 -7.9,-8.5" style="fill:#d1721b;fill-opacity:1;fill-rule:nonzero;stroke:none" id="path328"/>
      <path d="m 1186.82,1896 28.13,23.4 c 0,0 8.29,-13.72 14.37,-15.61 1.42,-0.44 5.95,0.87 7.43,0.87 8.02,0.02 12.88,-2.53 22.73,-7.04 6.62,-3.04 15.35,-5.8 15.7,-8.45 0.36,-2.66 -4.25,-6.84 -8.87,-6.5 -0.57,0.04 -1.35,0.22 -2.28,0.48 -0.05,-0.75 -0.13,-1.57 -0.53,-2.8 -1.91,-5.89 -29.53,-44.45 -56.98,-2.52 -6.22,9.5 -19.7,18.17 -19.7,18.17" style="fill:#f9af94;fill-opacity:1;fill-rule:nonzero;stroke:none" id="path330"/>
      <path d="m 1172.61,2170.33 c -9.3,-28.6 -19.2,-73.8 -37.9,-112.1 -0.4,-0.9 -0.8,-1.7 -1.2,-2.4 l -0.3,-0.5 c 0,0 -0.4,-1.7 -1.4,-4.2 -3.4,-7.9 -12.6,-24 -33.4,-22.9 -1,0 -3.7,-0.1 -7.1,-0.3 -4.1,-0.2 -9.2,-0.3 -13.9,0 -5.8,0.4 -10.9,1.5 -12.6,4.4 l -0.1,0.1 c -0.2,0.6 -0.5,1.6 -0.7,2.9 l -0.3,1.6 -0.3,1.7 c -0.2,1.6 -0.3,3.2 -0.4,4.8 l -0.1,2.4 c -0.2,10.2 1.6,20.2 1.9,23.4 3,32.2 34.8,133 45.6,175 1.6,6.2 5.1,11.7 9.9,15.5 4.2,3.5 9.4,5.7 15.1,6 l 0.2,0.1 h 2.4 c 14.1,-0.4 23.8,-11.5 30.3,-24.8 4.3,-8.8 7.2,-18.3 8.3,-27.9 1.9,-14.2 0.4,-29 -4,-42.8" style="fill:#51add7;fill-opacity:1;fill-rule:nonzero;stroke:none" id="path332"/>
      <path d="m 1221.01,1906.13 -17.6,-15.9 -0.1,-0.1 -4.6,-4 c 0,0 -35.7,31 -63.5,57.2 -25.7,24.4 -51.9,51.6 -68.2,84.2 -0.8,1.5 -1.6,3.2 -2.3,4.7 v 0.2 c -0.2,0.6 -0.5,1.6 -0.7,2.9 l -0.3,1.6 -0.3,1.7 c -0.2,1.6 -0.3,3.2 -0.4,4.8 l -0.1,2.4 c 0.1,6.1 1.6,13 6.5,18.8 l 1.3,1.5 c 1.9,1.9 4.2,3.6 7,5.1 1.7,0.9 3.5,1.7 5.2,2.2 20.6,7.2 39.8,-5.4 39.8,-5.4 1.1,-1.1 2.3,-2.3 3.4,-3.6 2.4,-2.6 4.9,-5.5 7.4,-8.6 6.9,-8.8 13.8,-19.5 19.2,-32.1 17,-39.3 68.3,-117.6 68.3,-117.6" style="fill:#51add7;fill-opacity:1;fill-rule:nonzero;stroke:none" id="path334"/>
      <path d="m 1640.07,2292.54 c 0,0 42.87,29.84 44.79,52.66 2.11,25.19 -15.6,37.3 -27.25,23.4 -18.34,-21.86 -13.4,-61.35 -13.4,-61.35 l -4.14,-14.71" style="fill:#f9af94;fill-opacity:1;fill-rule:nonzero;stroke:none" id="path336"/>
      <path d="m 1203.41,1890.23 -0.1,-0.1 -4.6,-4 c 0,0 -35.7,31 -63.5,57.2 -25.7,24.4 -51.9,51.6 -68.2,84.2 -0.8,1.5 -1.6,3.2 -2.3,4.7 v 0.2 c -0.2,0.6 -0.5,1.6 -0.7,2.9 l -0.3,1.6 -0.3,1.7 c -0.2,1.6 -0.3,3.2 -0.4,4.8 l -0.1,2.4 c -0.2,10.2 1.6,20.2 1.9,23.4 3,32.2 34.8,133 45.6,175 1.6,6.2 5.1,11.7 9.9,15.5 4.2,3.5 9.4,5.7 15.1,6 l 0.2,0.1 h 2.4 c -6.7,-10.8 -16.2,-32.6 -26.9,-76.3 -14.2,-58.3 -24.2,-93.5 -28.2,-116.1 -2,-10.4 -2.6,-18.2 -1.8,-24.3 0.5,-3.8 4.2,-11.3 10.2,-21.2 24.5,-40.6 86.7,-120.3 112.1,-137.7" style="fill:#4197b8;fill-opacity:1;fill-rule:nonzero;stroke:none" id="path338"/>
    </g>
  </g>
</svg>